<svg id="Layer_1" data-name="Layer 1" xmlns="http://www.w3.org/2000/svg" viewBox="0 0 1070.59 198.02"><defs><style>.cls-1{fill:#fff;}.cls-2{fill:#c4d945;}.cls-3{fill:#67a740;}</style></defs><title>dc_logo_full</title><path class="cls-1" d="M282.83,69.22H305V189.74H282.83v-5.06c-4.54,4.19-10.48,6.63-18.69,6.63-22.89,0-34.59-16.24-34.59-39.47V140c0-25.5,13.8-39.13,34.59-39.13,7.51,0,13.8,1.92,18.69,6.12Zm0,81.22v-11c0-12.76-5.07-19.74-15.55-19.74-11,0-15.54,7.68-15.54,21.66v9.08c0,12.58,3.49,22,15.54,22C279.86,172.45,282.83,163,282.83,150.44Z" transform="translate(-40.56 -12.88)"/><path class="cls-1" d="M383.62,176.47c-6.12,10.65-16.25,14.84-32,14.84-26.2,0-38.78-16.94-38.78-39.47V140c0-26.38,13.28-39.13,36-39.13,24.63,0,36,14.33,36,40.88v9.95H335.06c.17,12.06,4,20.79,16.42,20.79,9.26,0,12.22-2.79,15.54-7.51Zm-48.56-40.7h27.42C362,124.41,357.42,119.7,349,119.7,340.12,119.7,335.93,125.81,335.06,135.77Z" transform="translate(-40.56 -12.88)"/><path class="cls-1" d="M465.54,189.74H443.36V138.56c0-14-5.42-18.51-13.28-18.51-8,0-13.8,5.94-13.8,18.34v51.35H393.92V102.4h21.84v7.34c3.32-4.54,9.61-8.91,19.39-8.91,10.48,0,19,4,24.45,11.71a31.81,31.81,0,0,1,25.16-11.71c19,0,30.22,11.53,30.22,34.24v54.67H492.62V138.56c0-13.1-4.55-18.51-13.45-18.51-8,0-13.63,5.94-13.63,18.34Z" transform="translate(-40.56 -12.88)"/><path class="cls-1" d="M553.76,137.34h17.29v-5.07c0-9.78-3-12.92-15.55-12.92-8.56,0-12.75,1.22-16.42,7l-15.72-11c6.47-10.66,16.25-14.5,34.24-14.5,22.53,0,35.28,6.64,35.28,31.62v57.29H571.05v-7.68c-3.49,5.94-8.73,9.25-18.87,9.25-18.16,0-30.74-9.6-30.74-27.42C521.44,145.38,535.42,137.34,553.76,137.34Zm17.29,16.42H556.38c-9.09,0-13.1,3-13.1,9.78,0,6.64,5.06,9.78,12.75,9.78,10.13,0,15-4.36,15-16.24Z" transform="translate(-40.56 -12.88)"/><path class="cls-1" d="M603.71,102.4h21.84v7.34c3.32-4.37,10.31-8.91,20.09-8.91,17.64,0,32,8.39,32,34.24v54.67H655.42V138.56c0-13.62-4.89-18.51-14-18.51-10.31,0-15.38,6.81-15.38,18.34v51.35H603.71Z" transform="translate(-40.56 -12.88)"/><path class="cls-1" d="M738.74,69.22h22.18V189.74H738.74v-5.06c-4.54,4.19-10.48,6.63-18.69,6.63-22.88,0-34.59-16.24-34.59-39.47V140c0-25.5,13.8-39.13,34.59-39.13,7.51,0,13.8,1.92,18.69,6.12Zm0,81.22v-11c0-12.76-5.07-19.74-15.55-19.74-11,0-15.54,7.68-15.54,21.66v9.08c0,12.58,3.49,22,15.54,22C735.77,172.45,738.74,163,738.74,150.44Z" transform="translate(-40.56 -12.88)"/><path class="cls-1" d="M837.43,176.64c-5.76,9.26-16.07,14.15-29.69,14.15-23.41,0-36.86-14-36.86-38.6V139.61c0-24.8,13.8-38.25,36.86-38.25,12.75,0,23.06,4.54,29.52,13.45l-7.69,5.24c-4.89-6.64-13.1-9.79-21.83-9.79-17.29,0-27.25,10.49-27.25,29.35v12.58c0,17.29,8,29.69,27.25,29.69,8.91,0,17.12-3,22-10.65Z" transform="translate(-40.56 -12.88)"/><path class="cls-1" d="M850.89,148.52v3.67c0,17.29,8,29.69,26.55,29.69,10.65,0,17.81-3.14,22.7-10.65l7.69,5.41c-6.11,9.61-15.72,14.15-29.87,14.15-23.23,0-36.68-14.32-36.68-38.6V139.61c0-24.8,11.88-38.25,33.71-38.25s33.71,13.45,33.71,38.25v8.91Zm0-8.73H899.1v-.18c0-19-8.21-29.35-24.11-29.35s-24.1,10.49-24.1,29.35Z" transform="translate(-40.56 -12.88)"/><path class="cls-1" d="M923.2,102.4h9.61v11.88c4.54-8.38,12.58-12.92,25.68-12.92,19.39,0,32.14,12,32.14,36.68v51.7H981V138.21c0-19.91-10-27.77-23.58-27.77-16.42,0-24.63,10.83-24.63,26.9v52.4H923.2Z" transform="translate(-40.56 -12.88)"/><path class="cls-1" d="M1000.41,102.4h11.18V83.19h9.61V102.4h21.48v8.91H1021.2v48.91c0,14,1.57,20.26,15.72,20.26h5.76v9.26h-6.11c-19.39,0-25-8.73-25-26.9V111.31h-11.18Z" transform="translate(-40.56 -12.88)"/><path class="cls-1" d="M1064.52,137.17v52.57h-9.61V102.4h9.61v11.88c3.66-8,11-12.92,22-12.92,11.35,0,18.86,4.36,24.63,12l-8,5.94c-4.54-5.94-9.78-8.91-17.47-8.91C1072,110.44,1064.52,121.27,1064.52,137.17Z" transform="translate(-40.56 -12.88)"/><path class="cls-2" d="M196.55,154.6V136.45a24.56,24.56,0,0,1,0-49.12V69.18a42.71,42.71,0,1,0,0,85.42Z" transform="translate(-40.56 -12.88)"/><path class="cls-2" d="M196.55,210.9V168.82a56.93,56.93,0,0,1,0-113.86V12.88a99,99,0,0,0,0,198Z" transform="translate(-40.56 -12.88)"/><path class="cls-3" d="M40.56,69.18V87.33a24.56,24.56,0,1,1,0,49.12V154.6a42.71,42.71,0,1,0,0-85.42Z" transform="translate(-40.56 -12.88)"/><path class="cls-3" d="M40.56,12.88V55a56.93,56.93,0,0,1,0,113.86V210.9a99,99,0,0,0,0-198Z" transform="translate(-40.56 -12.88)"/></svg>