<svg id="Layer_1" data-name="Layer 1" xmlns="http://www.w3.org/2000/svg" viewBox="0 0 203.01 257.72"><defs><style>.cls-1{fill:#bbd644;}.cls-2{fill:#70be44;}</style></defs><title>dc_icon</title><path class="cls-1" d="M218,197.73V174.1a32,32,0,1,1,0-63.92V86.55a55.59,55.59,0,0,0,0,111.18Z" transform="translate(-15 -13.28)"/><path class="cls-1" d="M218,271V216.23a74.09,74.09,0,0,1,0-148.18V13.28A128.86,128.86,0,0,0,218,271Z" transform="translate(-15 -13.28)"/><path class="cls-2" d="M15,86.55v23.63a32,32,0,0,1,0,63.92v23.63A55.59,55.59,0,1,0,15,86.55Z" transform="translate(-15 -13.28)"/><path class="cls-2" d="M15,13.28V68.05a74.09,74.09,0,1,1,0,148.18V271A128.86,128.86,0,0,0,15,13.28Z" transform="translate(-15 -13.28)"/></svg>