<svg id="Layer_1" data-name="Layer 1" xmlns="http://www.w3.org/2000/svg" viewBox="0 0 715.96 99.16"><defs><style>.cls-1{fill:#fff;}</style></defs><title>dc_logo_text</title><path class="cls-1" d="M42.79,4.94h18v97.88h-18V98.71c-3.69,3.4-8.51,5.39-15.18,5.39C9,104.1-.48,90.9-.48,72V62.39c0-20.71,11.21-31.78,28.09-31.78,6.1,0,11.21,1.56,15.18,5Zm0,66V62c0-10.35-4.11-16-12.62-16-8.94,0-12.63,6.25-12.63,17.59V70.9c0,10.22,2.84,17.88,12.63,17.88C40.38,88.78,42.79,81.12,42.79,70.9Z" transform="translate(0.48 -4.94)"/><path class="cls-1" d="M124.64,92c-5,8.65-13.19,12.06-26,12.06C77.41,104.1,67.19,90.34,67.19,72V62.39C67.19,41,78,30.61,96.41,30.61c20,0,29.23,11.64,29.23,33.2v8.08H85.21c.14,9.79,3.26,16.89,13.33,16.89,7.52,0,9.93-2.27,12.63-6.1ZM85.21,59h22.27c-.43-9.23-4.11-13.06-10.92-13.06C89.32,45.93,85.92,50.9,85.21,59Z" transform="translate(0.48 -4.94)"/><path class="cls-1" d="M191.18,102.82h-18V61.26c0-11.35-4.4-15-10.78-15-6.53,0-11.21,4.82-11.21,14.89v41.71H133V31.89h17.74v6c2.69-3.69,7.8-7.24,15.74-7.24,8.51,0,15.46,3.27,19.86,9.51a25.86,25.86,0,0,1,20.43-9.51c15.46,0,24.54,9.37,24.54,27.81v44.4H213.16V61.26c0-10.64-3.69-15-10.92-15-6.53,0-11.06,4.82-11.06,14.89Z" transform="translate(0.48 -4.94)"/><path class="cls-1" d="M262.82,60.26h14V56.15c0-7.95-2.41-10.5-12.63-10.5-7,0-10.35,1-13.33,5.68l-12.77-8.94c5.25-8.66,13.2-11.78,27.81-11.78,18.3,0,28.65,5.39,28.65,25.68v46.53H276.86V96.58c-2.84,4.82-7.09,7.52-15.32,7.52-14.75,0-25-7.81-25-22.28C236.57,66.79,247.92,60.26,262.82,60.26Zm14,13.34H264.94c-7.37,0-10.64,2.41-10.64,7.94s4.12,7.94,10.36,7.94c8.23,0,12.2-3.54,12.2-13.19Z" transform="translate(0.48 -4.94)"/><path class="cls-1" d="M303.39,31.89h17.73v6c2.69-3.55,8.37-7.24,16.31-7.24,14.33,0,26,6.81,26,27.81v44.4h-18V61.26c0-11.07-4-15-11.35-15-8.37,0-12.48,5.53-12.48,14.89v41.71H303.39Z" transform="translate(0.48 -4.94)"/><path class="cls-1" d="M413,4.94h18v97.88H413V98.71c-3.69,3.4-8.51,5.39-15.18,5.39-18.58,0-28.08-13.2-28.08-32.06V62.39c0-20.71,11.2-31.78,28.08-31.78,6.1,0,11.21,1.56,15.18,5Zm0,66V62c0-10.35-4.11-16-12.62-16-8.94,0-12.63,6.25-12.63,17.59V70.9c0,10.22,2.84,17.88,12.63,17.88C410.63,88.78,413,81.12,413,70.9Z" transform="translate(0.48 -4.94)"/><path class="cls-1" d="M493.19,92.18c-4.68,7.52-13.05,11.49-24.11,11.49-19,0-29.93-11.35-29.93-31.35V62.11C439.15,42,450.35,31,469.08,31c10.35,0,18.72,3.69,24,10.92l-6.24,4.26c-4-5.39-10.64-7.95-17.73-7.95C455,38.27,447,46.79,447,62.11V72.32c0,14,6.52,24.12,22.13,24.12,7.23,0,13.9-2.42,17.87-8.66Z" transform="translate(0.48 -4.94)"/><path class="cls-1" d="M504.12,69.34v3c0,14,6.52,24.12,21.56,24.12,8.65,0,14.47-2.56,18.44-8.66l6.24,4.4c-5,7.8-12.76,11.49-24.25,11.49-18.87,0-29.79-11.63-29.79-31.35V62.11C496.32,42,506,31,523.69,31S551.07,42,551.07,62.11v7.23Zm0-7.09h39.15v-.14c0-15.47-6.67-23.84-19.58-23.84s-19.57,8.52-19.57,23.84Z" transform="translate(0.48 -4.94)"/><path class="cls-1" d="M562.85,31.89h7.8v9.65C574.34,34.73,580.86,31,591.5,31c15.75,0,26.1,9.79,26.1,29.79v42h-7.8V61c0-16.17-8.08-22.55-19.15-22.55-13.33,0-20,8.79-20,21.84v42.56h-7.8Z" transform="translate(0.48 -4.94)"/><path class="cls-1" d="M625.55,31.89h9.08V16.29h7.8v15.6h17.45v7.24H642.43V78.85c0,11.34,1.28,16.45,12.77,16.45h4.68v7.52h-5c-15.74,0-20.28-7.09-20.28-21.85V39.13h-9.08Z" transform="translate(0.48 -4.94)"/><path class="cls-1" d="M677.61,60.12v42.7h-7.8V31.89h7.8v9.65c3-6.53,8.94-10.5,17.87-10.5,9.23,0,15.32,3.55,20,9.79L709,45.65c-3.69-4.82-7.94-7.23-14.19-7.23C683.71,38.42,677.61,47.21,677.61,60.12Z" transform="translate(0.48 -4.94)"/></svg>