<?xml version="1.0" encoding="utf-8"?>
<!-- Generator: Adobe Illustrator 23.0.2, SVG Export Plug-In . SVG Version: 6.00 Build 0)  -->
<svg version="1.1" id="Layer_1" xmlns="http://www.w3.org/2000/svg" xmlns:xlink="http://www.w3.org/1999/xlink" x="0px" y="0px"
	 viewBox="0 0 65 65" style="enable-background:new 0 0 65 65;" xml:space="preserve">
<style type="text/css">
	.st0{display:none;fill:#286BFF;enable-background:new    ;}
	.st1{display:none;fill:#175DFF;enable-background:new    ;}
	.st2{display:none;fill:none;stroke:#2165FF;stroke-miterlimit:10;enable-background:new    ;}
	.st3{display:none;fill:#FFFFFF;}
	.st4{display:none;}
	.st5{display:inline;}
	.st6{fill:#1C73FF;}
	.st7{display:none;fill:#175DFF;}
	.st8{fill:none;stroke:#175DFF;stroke-width:3;stroke-miterlimit:10;}
	.st9{display:inline;fill:none;stroke:#175DFF;stroke-miterlimit:10;}
	.st10{display:inline;fill:none;}
	.st11{display:inline;fill:#FFFFFF;}
	.st12{display:inline;fill:#1C73FF;}
	.st13{display:inline;fill:#175DFF;}
	.st14{fill:none;stroke:#175DFF;stroke-miterlimit:10;}
</style>
<path class="st0" d="M20.2,46.5H24c1.5,0,2.7-1.1,2.7-2.5V20.7c0-1.4-1.2-2.5-2.7-2.5h-3.8v1H24c0.9,0,1.6,0.7,1.6,1.5V44
	c0,0.8-0.7,1.5-1.6,1.5h-3.8V46.5"/>
<path class="st1" d="M16.9,20.7c-1.2,0-2.2-0.9-2.2-2c0-1.1,1-2,2.2-2s2.2,0.9,2.2,2C19.1,19.8,18.1,20.7,16.9,20.7 M15.8,18.7
	c0,0.6,0.5,1,1.1,1s1.1-0.5,1.1-1s-0.5-1-1.1-1S15.8,18.1,15.8,18.7z"/>
<path class="st1" d="M16.9,38.9c-1.2,0-2.2-0.9-2.2-2c0-1.1,1-2,2.2-2s2.2,0.9,2.2,2C19.1,38,18.1,38.9,16.9,38.9 M15.8,36.9
	c0,0.6,0.5,1,1.1,1s1.1-0.5,1.1-1c0-0.6-0.5-1-1.1-1S15.8,36.4,15.8,36.9z"/>
<path class="st1" d="M16.9,48.1c-1.2,0-2.2-0.9-2.2-2c0-1.1,1-2,2.2-2s2.2,0.9,2.2,2C19.1,47.2,18.1,48.1,16.9,48.1 M15.8,46
	c0,0.6,0.5,1,1.1,1s1.1-0.5,1.1-1c0-0.6-0.5-1-1.1-1S15.8,45.5,15.8,46z"/>
<rect x="20.2" y="36.4" class="st0" width="8.7" height="1"/>
<path class="st1" d="M16.9,29.8c-1.2,0-2.2-0.9-2.2-2c0-1.1,1-2,2.2-2s2.2,0.9,2.2,2C19.1,28.9,18.1,29.8,16.9,29.8 M15.8,27.8
	c0,0.6,0.5,1,1.1,1s1.1-0.5,1.1-1c0-0.6-0.5-1-1.1-1S15.8,27.3,15.8,27.8z"/>
<rect x="20.2" y="27.3" class="st0" width="8.7" height="1"/>
<path class="st2" d="M35.4,25.1v3.2c0,3.6,3.2,6.5,6.6,6.5c3.4,0,6.6-2.9,6.6-6.5v-3.2c0-3.6-3.2-6.5-6.6-6.5
	C38.6,18.6,35.4,21.5,35.4,25.1z"/>
<path class="st2" d="M52.3,45.5v-4.4c0-2.6-5.6-6.4-10.2-6.4s-10.2,3.8-10.2,6.4v4.4"/>
<ellipse class="st3" cx="32.5" cy="32.9" rx="25.1" ry="23.3"/>
<path class="st1" d="M50.8,24.9c-0.4-0.4-0.9-0.6-1.4-0.6h-2.6v-5.1H41l-8.6-8.6L24,19.2h-6v5.1h-2.3c-1.1,0-2,0.9-2,2l0,20.7
	c0,0.5,0.2,1,0.6,1.4c0.4,0.4,0.9,0.6,1.4,0.6h11.1v1.8h-2.6v1.3h16.8v-1.3h-2.6v-1.8h11.1c1.1,0,2-0.9,2-2l0-20.7
	C51.4,25.7,51.2,25.2,50.8,24.9 M49.4,25.6c0.2,0,0.3,0.1,0.5,0.2c0.1,0.1,0.2,0.3,0.2,0.5l0,18.1h-3.2V25.6H49.4z M25.8,19.2
	l6.6-6.7l7.3,7.3l-7.3,7.3l-6.7-6.6l-0.6-0.6L25.8,19.2z M24.9,21.5l6.9,6.8v6.2l-6.9-6.8V21.5z M33.1,28.3l6.9-6.9v6.1l-6.9,6.9
	V28.3z M19.3,20.5h4.3v7.7l8.9,8.8l8.9-8.9v-7.5h4.2v23.8h-19c-0.3-3.9-3.4-6.9-7.3-7.3V20.5z M19.3,38.4c3.1,0.3,5.6,2.8,5.9,5.9
	h-5.9V38.4z M15,26.3c0-0.4,0.3-0.7,0.7-0.7h2.3v18.8h-3L15,26.3z M28,48.9h9v1.8h-9V48.9z M50,47c0,0.4-0.3,0.7-0.7,0.7H15.6
	c-0.2,0-0.3-0.1-0.5-0.2c-0.1-0.1-0.2-0.3-0.2-0.5l0-1.3h35.1L50,47z"/>
<path class="st1" d="M40.7,41.9c2.5,0,4.6-2.1,4.6-4.6c0-2.5-2.1-4.6-4.6-4.6s-4.6,2.1-4.6,4.6C36.1,39.8,38.1,41.9,40.7,41.9
	 M40.7,34c1.8,0,3.3,1.5,3.3,3.3s-1.5,3.3-3.3,3.3s-3.3-1.5-3.3-3.3S38.9,34,40.7,34"/>
<g class="st4">
	<g class="st5">
		<path class="st6" d="M18.8,50.2c-0.4,0-0.7-0.3-0.7-0.7V36.5c0-0.4,0.3-0.7,0.7-0.7c0.4,0,0.7,0.3,0.7,0.7v13.1
			C19.4,49.9,19.1,50.2,18.8,50.2z"/>
	</g>
</g>
<g class="st4">
	<g class="st5">
		<path class="st6" d="M18.8,25.4c-0.4,0-0.7-0.3-0.7-0.7v-7.8c0-0.4,0.3-0.7,0.7-0.7c0.4,0,0.7,0.3,0.7,0.7v7.8
			C19.4,25.1,19.1,25.4,18.8,25.4z"/>
	</g>
</g>
<g class="st4">
	<g class="st5">
		<path class="st6" d="M27.9,50.2c-0.4,0-0.7-0.3-0.7-0.7v-3.9c0-0.4,0.3-0.7,0.7-0.7c0.4,0,0.7,0.3,0.7,0.7v3.9
			C28.6,49.9,28.3,50.2,27.9,50.2z"/>
	</g>
</g>
<g class="st4">
	<g class="st5">
		<path class="st6" d="M27.9,34.5c-0.4,0-0.7-0.3-0.7-0.7v-17c0-0.4,0.3-0.7,0.7-0.7c0.4,0,0.7,0.3,0.7,0.7v17
			C28.6,34.2,28.3,34.5,27.9,34.5z"/>
	</g>
</g>
<g class="st4">
	<g class="st5">
		<path class="st6" d="M37.1,50.2c-0.4,0-0.7-0.3-0.7-0.7V37.8c0-0.4,0.3-0.7,0.7-0.7c0.4,0,0.7,0.3,0.7,0.7v11.8
			C37.7,49.9,37.4,50.2,37.1,50.2z"/>
	</g>
</g>
<g class="st4">
	<g class="st5">
		<path class="st6" d="M37.1,26.7c-0.4,0-0.7-0.3-0.7-0.7v-9.2c0-0.4,0.3-0.7,0.7-0.7c0.4,0,0.7,0.3,0.7,0.7V26
			C37.7,26.4,37.4,26.7,37.1,26.7z"/>
	</g>
</g>
<g class="st4">
	<g class="st5">
		<path class="st6" d="M46.2,50.2c-0.4,0-0.7-0.3-0.7-0.7V31.3c0-0.4,0.3-0.7,0.7-0.7c0.4,0,0.7,0.3,0.7,0.7v18.3
			C46.9,49.9,46.6,50.2,46.2,50.2z"/>
	</g>
</g>
<g class="st4">
	<g class="st5">
		<path class="st6" d="M46.2,20.1c-0.4,0-0.7-0.3-0.7-0.7v-2.6c0-0.4,0.3-0.7,0.7-0.7c0.4,0,0.7,0.3,0.7,0.7v2.6
			C46.9,19.9,46.6,20.1,46.2,20.1z"/>
	</g>
</g>
<g class="st4">
	<g class="st5">
		<path class="st6" d="M18.8,35.2c-2.5,0-4.6-2.1-4.6-4.6s2.1-4.6,4.6-4.6c2.5,0,4.6,2.1,4.6,4.6S21.3,35.2,18.8,35.2z M18.8,27.3
			c-1.8,0-3.3,1.5-3.3,3.3c0,1.8,1.5,3.3,3.3,3.3c1.8,0,3.3-1.5,3.3-3.3C22,28.8,20.6,27.3,18.8,27.3z"/>
	</g>
</g>
<g class="st4">
	<g class="st5">
		<path class="st6" d="M27.9,44.3c-2.5,0-4.6-2.1-4.6-4.6c0-2.5,2.1-4.6,4.6-4.6c2.5,0,4.6,2.1,4.6,4.6
			C32.5,42.3,30.4,44.3,27.9,44.3z M27.9,36.5c-1.8,0-3.3,1.5-3.3,3.3s1.5,3.3,3.3,3.3c1.8,0,3.3-1.5,3.3-3.3S29.7,36.5,27.9,36.5z"
			/>
	</g>
</g>
<g class="st4">
	<g class="st5">
		<path class="st6" d="M46.2,29.9c-2.5,0-4.6-2.1-4.6-4.6s2.1-4.6,4.6-4.6c2.5,0,4.6,2.1,4.6,4.6S48.8,29.9,46.2,29.9z M46.2,22.1
			c-1.8,0-3.3,1.5-3.3,3.3s1.5,3.3,3.3,3.3c1.8,0,3.3-1.5,3.3-3.3S48,22.1,46.2,22.1z"/>
	</g>
</g>
<g class="st4">
	<g class="st5">
		<path class="st6" d="M37.1,36.5c-2.5,0-4.6-2.1-4.6-4.6s2.1-4.6,4.6-4.6c2.5,0,4.6,2.1,4.6,4.6S39.6,36.5,37.1,36.5z M37.1,28.6
			c-1.8,0-3.3,1.5-3.3,3.3s1.5,3.3,3.3,3.3c1.8,0,3.3-1.5,3.3-3.3S38.9,28.6,37.1,28.6z"/>
	</g>
</g>
<path class="st7" d="M46.9,23v3h-4.5c-0.9-0.4-5.7-2.5-7.7-2.8c-0.6-0.1-1.3-0.1-2.1,0c-1.6,0.1-3.5,0.3-6.5-0.8
	c-0.5-0.2-1-0.1-1.4,0.1c-0.5,0.3-0.8,0.8-0.9,1.3c-0.1,0.6,0,1.4,0.3,2.2h-4.6v-3h-6.7v20h6.7v-3.2c0.4,0.3,0.9,0.5,1.5,0.5
	c0.3,0,0.5,0,0.8-0.1c0,0.6,0.2,1.1,0.6,1.6c0.5,0.6,1.2,0.9,1.9,0.9c0.3,0,0.6-0.1,1-0.2c0,0.5,0.2,1,0.6,1.4
	c0.5,0.6,1.2,0.9,1.9,0.9c0.5,0,1.1-0.2,1.6-0.5c0.1,0.5,0.2,1,0.6,1.3c0.5,0.6,1.2,0.8,1.9,0.8c0.5,0,1-0.1,1.4-0.4l1.5,1.2
	c0.5,0.4,1.1,0.6,1.7,0.6c0.1,0,0.2,0,0.3,0c0.7-0.1,1.2-0.4,1.6-0.9c0.3-0.3,0.4-0.7,0.5-1.2c0.4,0.2,0.9,0.3,1.4,0.2
	c0.7-0.1,1.2-0.4,1.6-0.9c0.3-0.4,0.4-0.8,0.5-1.2c0.3,0.1,0.7,0.1,1,0.1c0.7-0.1,1.2-0.4,1.6-0.9c0.4-0.5,0.5-1.1,0.5-1.7
	c0.2,0,0.4,0,0.6,0c0.4,0,0.7-0.2,1-0.4v2.2h6.7V23H46.9 M14.1,24.3h4.1v17.5h-4.1V24.3z M22,38.7c-0.6,0.5-1.5,0.5-1.9,0
	c-0.5-0.5-0.3-1.4,0.3-1.9l3.3-2.9c0.3-0.2,0.6-0.4,1-0.4c0,0,0,0,0,0c0.4,0,0.7,0.2,0.9,0.4c0.5,0.5,0.3,1.4-0.3,1.9L22,38.7z
	 M25.3,41c-0.6,0.5-1.5,0.5-1.9,0c-0.5-0.5-0.3-1.4,0.3-1.9l3.8-3.4c0.3-0.3,0.7-0.4,1-0.4c0.4,0,0.7,0.1,0.9,0.4
	c0.5,0.5,0.3,1.4-0.3,1.9L25.3,41z M28.7,43.1c-0.6,0.5-1.5,0.5-1.9,0c-0.5-0.5-0.3-1.4,0.3-1.9l3.2-2.8c0.3-0.2,0.6-0.4,1-0.4
	c0,0,0,0,0,0c0.4,0,0.7,0.2,0.9,0.4c0.2,0.3,0.3,0.6,0.3,0.9c0,0.4-0.2,0.7-0.5,1L28.7,43.1z M32.8,44.7c-0.6,0.5-1.5,0.5-1.9,0
	c-0.5-0.5-0.3-1.4,0.3-1.9l1.5-1.4c0.3-0.3,0.7-0.4,1-0.4c0.4,0,0.7,0.1,0.9,0.4c0.2,0.3,0.3,0.6,0.3,0.9c0,0.4-0.2,0.7-0.6,1
	L32.8,44.7z M46.5,39.6c-0.2,0.2-0.4,0.4-0.7,0.4c-0.3,0-0.7-0.1-1-0.3l-0.3-0.3c-0.3-0.2-0.7-0.2-0.9,0.1c-0.2,0.3-0.2,0.7,0.1,0.9
	c0.5,0.5,0.7,1.3,0.3,1.8c-0.2,0.2-0.4,0.4-0.7,0.4c-0.3,0-0.7-0.1-1-0.3L41.7,42c-0.2-0.2-0.6-0.2-0.8,0c-0.2,0.2-0.3,0.5-0.2,0.8
	c0.3,0.5,0.2,1,0,1.4c-0.2,0.2-0.4,0.4-0.7,0.4c-0.3,0-0.7-0.1-1-0.3l-0.8-0.6c-0.2-0.2-0.6-0.2-0.8,0c-0.2,0.2-0.3,0.6-0.1,0.8
	c0.3,0.5,0.4,1.1,0,1.5c-0.2,0.2-0.4,0.4-0.7,0.4c-0.4,0-0.7-0.1-1-0.3l-1.3-1.1l1-0.9c0.5-0.5,0.9-1.1,1-1.8
	c0.1-0.7-0.1-1.4-0.6-1.9c-0.5-0.6-1.2-0.8-1.9-0.8c0-0.1,0-0.2,0.1-0.3c0.1-0.7-0.1-1.4-0.6-1.9c-0.5-0.5-1.1-0.8-1.8-0.9
	c-0.1,0-0.3,0-0.4,0c0.1-0.7-0.1-1.3-0.6-1.8c-0.8-0.9-2.1-1.1-3.2-0.5c-0.1-0.5-0.2-0.9-0.6-1.3c-0.5-0.5-1.1-0.8-1.8-0.9
	c-0.7,0-1.4,0.2-1.9,0.7l-3.3,2.9v-8.4l5.4,0c0.4,0.4,0.9,0.8,1.5,1.1c2.6,1.2,4,1.3,5,1.4c0.7,0.1,0.9,0.1,1.1,0.4
	c2.5,2.8,5.7,2.9,6.9,2.8c0.2,0,0.4,0,0.6,0.1l3.5,2.6c0.6,0.5,1.3,1,1.9,1.4l0.7,0.5C46.7,38.2,46.9,39,46.5,39.6z M46.9,36.7
	l-6.1-4.5c-0.4-0.3-0.9-0.4-1.4-0.4c-1,0.1-3.7,0-5.8-2.4c-0.6-0.7-1.3-0.8-2-0.8c-0.9-0.1-2.1-0.2-4.5-1.3c-1.7-0.8-2-2.4-1.8-3.3
	c0-0.2,0.1-0.3,0.3-0.4c0.1,0,0.2-0.1,0.3,0c3.2,1.2,5.5,1.1,7.1,0.9c0.7-0.1,1.3-0.1,1.8,0c2,0.3,7.5,2.8,7.5,2.8l4.8,0V36.7z
	 M48.2,24.3h4.1v17.5h-4.1V24.3z"/>
<circle class="st8" cx="32.5" cy="32.5" r="28.6"/>
<path class="st7" d="M51.5,36.4v-6.1h-2.1c-0.2-0.9-0.4-1.8-0.7-2.7l1.8-1.1l-3.1-5.3l-1.8,1.1c-0.6-0.7-1.3-1.4-2-2l1.1-1.8
	l-5.3-3.1l-1.1,1.8c-0.9-0.3-1.8-0.6-2.7-0.7v-2.1h-6.1v2.1c-0.9,0.2-1.8,0.4-2.7,0.7l-1.1-1.8l-5.3,3.1l1.1,1.8
	c-0.7,0.6-1.4,1.3-2,2l-1.8-1.1l-3.1,5.3l1.8,1.1c-0.3,0.9-0.6,1.8-0.7,2.7h-2.1v6.1h2.1c0.2,0.9,0.4,1.8,0.7,2.7l-1.8,1.1l3.1,5.3
	l1.8-1.1c0.6,0.7,1.3,1.4,2,2l-1.1,1.8l5.3,3.1l1.1-1.8c0.9,0.3,1.8,0.6,2.7,0.7v2.1h6.1v-2.1c0.9-0.2,1.8-0.4,2.7-0.7l1.1,1.8
	l5.3-3.1l-1.1-1.8c0.7-0.6,1.4-1.3,2-2l1.8,1.1l3.1-5.3l-1.8-1.1c0.3-0.9,0.6-1.8,0.7-2.7H51.5 M48.8,40.6L47,43.8l-1.7-1L45,43.2
	c-0.7,0.9-1.6,1.8-2.5,2.5L42,46.1l1,1.7l-3.2,1.8l-1-1.7l-0.5,0.2c-1.1,0.4-2.3,0.8-3.5,0.9l-0.5,0.1v1.9h-3.7v-1.9l-0.5-0.1
	c-1.2-0.2-2.3-0.5-3.5-0.9l-0.5-0.2l-1,1.7l-3.2-1.8l1-1.7l-0.4-0.3c-0.9-0.7-1.8-1.6-2.5-2.5l-0.3-0.4l-1.7,1l-1.8-3.2l1.7-1
	l-0.2-0.5c-0.4-1.1-0.8-2.3-0.9-3.5l-0.1-0.5h-1.9v-3.7h1.9l0.1-0.5c0.2-1.2,0.5-2.3,0.9-3.5l0.2-0.5l-1.7-1l1.8-3.2l1.7,1l0.3-0.4
	c0.7-0.9,1.6-1.8,2.5-2.5l0.4-0.3l-1-1.7l3.2-1.8l1,1.7l0.5-0.2c1.1-0.4,2.3-0.8,3.5-0.9l0.5-0.1v-1.9h3.7v1.9l0.5,0.1
	c1.2,0.2,2.3,0.5,3.5,0.9l0.5,0.2l1-1.7l3.2,1.8l-1,1.7l0.4,0.3c0.9,0.7,1.8,1.6,2.5,2.5l0.3,0.4l1.7-1l1.8,3.2l-1.7,1l0.2,0.5
	c0.4,1.1,0.8,2.3,0.9,3.5l0.1,0.5h1.9v3.7h-1.9l-0.1,0.5c-0.2,1.2-0.5,2.3-0.9,3.5l-0.2,0.5L48.8,40.6z"/>
<rect x="31.9" y="40.5" class="st7" width="1.2" height="1.2"/>
<rect x="31.9" y="45.4" class="st7" width="1.2" height="1.2"/>
<path class="st7" d="M20.9,25.5v13l11,4.9v0.8h1.2v-0.8l11-4.9v-13l-11.6-5.2L20.9,25.5 M34.6,34.4l-0.3,0.2v1.1h-1.2v-2.6
	c0.7-0.3,1.2-0.9,1.2-1.7c0-1-0.8-1.8-1.8-1.8c-1,0-1.8,0.8-1.8,1.8c0,0.8,0.5,1.5,1.2,1.7v2.6h-1.2v-1.1l-0.3-0.2
	c-1-0.7-1.6-1.8-1.6-3c0-2,1.6-3.7,3.7-3.7c2,0,3.7,1.6,3.7,3.7C36.2,32.5,35.6,33.7,34.6,34.4z M30.7,36.9h3.7v1.2h-3.7V36.9z
	 M31.9,31.4c0-0.3,0.3-0.6,0.6-0.6s0.6,0.3,0.6,0.6c0,0.3-0.3,0.6-0.6,0.6S31.9,31.7,31.9,31.4z M31.9,26.5
	c-1.3,0.2-2.5,0.9-3.2,1.9L23,25.8l8.9-4V26.5z M33.2,26.5v-4.6l8.9,4l-5.6,2.5C35.6,27.4,34.5,26.7,33.2,26.5z M32.5,42.3
	l-10.4-4.6V26.8l5.9,2.6c-0.3,0.6-0.4,1.2-0.4,1.9c0,1.5,0.7,2.9,1.8,3.8v0.5h-1.2v1.2h1.2v2.4h6.1v-2.4h1.2v-1.2h-1.2v-0.5
	c1.2-0.9,1.8-2.3,1.8-3.8c0-0.7-0.1-1.3-0.4-1.9l5.9-2.6v10.9L32.5,42.3z"/>
<path class="st7" d="M36.4,41.7c0-1.9-1.5-3.4-3.4-3.4c-1.9,0-3.4,1.5-3.4,3.4c0,1.9,1.5,3.4,3.4,3.4C34.8,45.1,36.4,43.6,36.4,41.7
	 M32.9,43.4c-0.9,0-1.7-0.8-1.7-1.7c0-0.9,0.8-1.7,1.7-1.7c0.9,0,1.7,0.8,1.7,1.7C34.6,42.6,33.9,43.4,32.9,43.4z"/>
<path class="st7" d="M25.1,41.7c0-1.9-1.5-3.4-3.4-3.4c-1.9,0-3.4,1.5-3.4,3.4c0,1.9,1.5,3.4,3.4,3.4C23.6,45.1,25.1,43.6,25.1,41.7
	 M21.7,43.4c-0.9,0-1.7-0.8-1.7-1.7c0-0.9,0.8-1.7,1.7-1.7s1.7,0.8,1.7,1.7C23.4,42.6,22.7,43.4,21.7,43.4z"/>
<path class="st7" d="M44.2,38.3c-1.9,0-3.4,1.5-3.4,3.4c0,1.9,1.5,3.4,3.4,3.4s3.4-1.5,3.4-3.4C47.6,39.8,46,38.3,44.2,38.3
	 M44.2,43.4c-0.9,0-1.7-0.8-1.7-1.7c0-0.9,0.8-1.7,1.7-1.7s1.7,0.8,1.7,1.7C45.9,42.6,45.1,43.4,44.2,43.4z"/>
<path class="st7" d="M27.3,45.6c-1.9,0-3.4,1.5-3.4,3.4c0,1.9,1.5,3.4,3.4,3.4c1.9,0,3.4-1.5,3.4-3.4C30.7,47.1,29.2,45.6,27.3,45.6
	 M27.3,50.7c-0.9,0-1.7-0.8-1.7-1.7c0-0.9,0.8-1.7,1.7-1.7c0.9,0,1.7,0.8,1.7,1.7C29,49.9,28.3,50.7,27.3,50.7z"/>
<path class="st7" d="M38.6,45.6c-1.9,0-3.4,1.5-3.4,3.4c0,1.9,1.5,3.4,3.4,3.4c1.9,0,3.4-1.5,3.4-3.4C42,47.1,40.4,45.6,38.6,45.6
	 M38.6,50.7c-0.9,0-1.7-0.8-1.7-1.7c0-0.9,0.8-1.7,1.7-1.7c0.9,0,1.7,0.8,1.7,1.7C40.3,49.9,39.5,50.7,38.6,50.7z"/>
<path class="st7" d="M50.8,19c0-1.5-1.2-2.7-2.7-2.7H17.7c-1.5,0-2.7,1.2-2.7,2.7v15c0,1.5,1.2,2.7,2.7,2.7h30.4
	c1.5,0,2.7-1.2,2.7-2.7V19 M48.1,34.9H17.7c-0.5,0-1-0.4-1-1V19c0-0.5,0.4-1,1-1h30.4c0.5,0,1,0.4,1,1v15
	C49.1,34.5,48.7,34.9,48.1,34.9z"/>
<path class="st7" d="M46,19.1l-7,7.2c-0.1,0-0.2,0-0.3,0c0,0,0,0,0,0l-3.8-6.1c-0.2-0.3-0.5-0.4-0.9-0.4s-0.6,0.3-0.7,0.6l-2.5,9.8
	c0,0,0,0,0,0l-5.5-4.5c-0.4-0.3-0.9-0.2-1.2,0.1l-5.6,6.8c-0.3,0.4-0.2,0.9,0.1,1.2c0.2,0.1,0.4,0.2,0.5,0.2c0.2,0,0.5-0.1,0.7-0.3
	l5.1-6.2l4.9,4c0,0.1,0,0.1,0,0.2c0,0.9,0.7,1.6,1.6,1.6c0.9,0,1.6-0.7,1.6-1.6c0-0.4-0.2-0.8-0.4-1.1l2-7.9l2.7,4.4
	c-0.1,0.2-0.2,0.4-0.2,0.7c0,0.9,0.7,1.6,1.6,1.6c0.9,0,1.6-0.7,1.6-1.6c0-0.1,0-0.3,0-0.4l7-7.2c0.3-0.3,0.3-0.9,0-1.2
	C46.9,18.7,46.3,18.8,46,19.1"/>
<path class="st7" d="M45.4,31.4C45.4,31.4,45.4,31.4,45.4,31.4l-1.4-0.7l0.3-0.6c0,0,0,0,0,0c0.1-0.1,0-0.3,0-0.4
	c-0.1-0.1-0.2-0.1-0.4-0.1l-2,0.5c-0.1,0-0.2,0.1-0.2,0.2c0,0.1,0,0.2,0,0.3v0c0,0,0,0,0,0l0.8,1.9h0c0.1,0.1,0.2,0.2,0.3,0.2
	c0,0,0,0,0,0c0.1,0,0.2-0.1,0.3-0.2c0,0,0,0,0,0l0.3-0.6l1.3,0.7c0,0,0,0,0,0c0,0,0.1,0,0.1,0c0,0,0.1,0,0.1,0
	c0.1,0,0.2-0.1,0.2-0.2c0,0,0,0,0,0l0.3-0.7c0,0,0,0,0,0c0-0.1,0-0.2,0-0.3C45.5,31.5,45.5,31.5,45.4,31.4"/>
<path class="st7" d="M31.5,44.6l-0.7,0.2l-2.1-6.7l1.5-0.4c0,0,0,0,0,0s0,0,0,0c0.2-0.1,0.5,0,0.7,0.1c0.1,0.1,0.3,0.1,0.5,0.1
	c0.3,0,0.6-0.1,0.7-0.4c0.3-0.4,0.2-1-0.3-1.2c-0.6-0.4-1.4-0.5-2.2-0.3c0,0,0,0,0,0l-2.5,0.7c-1.4,0.4-2.9-0.3-3.3-1.5l-2.1-6.5
	c-0.2-0.7-0.1-1.4,0.2-2c0.4-0.6,0.9-1.1,1.6-1.3c0,0,0,0,0,0c0,0,0,0,0,0l2.4-0.8c0,0,0,0,0,0s0,0,0,0c1.4-0.4,2.1-1.9,1.7-3.3l0,0
	l0,0c0,0,0,0,0,0l0,0l-1.6-5.1c0,0,0,0,0,0c0,0,0,0,0,0c-0.2-0.7-0.7-1.2-1.3-1.5c-0.6-0.3-1.3-0.4-2-0.2c0,0,0,0,0,0l0,0
	c0,0,0,0,0,0c0,0,0,0,0,0L18.5,16c0,0,0,0,0,0c0,0,0,0,0,0c-1.9,0.8-3.3,2.4-3.6,4.4c0,0,0,0,0,0c0,0,0,0,0,0
	c-0.7,4.2-0.5,8.3,0.6,12.4C16.5,37,18.4,40.7,21,44c1.6,2.2,4.1,3.4,6.5,3.4c0.6,0,1.2-0.1,1.8-0.2c0,0,0,0,0,0c0,0,0,0,0,0
	l2.7-0.8c0.5-0.1,0.7-0.6,0.6-1.1C32.4,44.8,31.9,44.5,31.5,44.6 M24.4,16.8L26,22l0,0c0,0,0,0,0,0c0.1,0.4-0.1,0.9-0.6,1
	c0,0,0,0,0,0L24,23.5l-2.1-6.7l1.5-0.5c0,0,0,0,0,0c0,0,0,0,0,0c0.2-0.1,0.4-0.1,0.6,0.1C24.2,16.5,24.3,16.6,24.4,16.8z M22.4,42.9
	C22.4,42.9,22.4,42.9,22.4,42.9C22.4,42.9,22.4,42.9,22.4,42.9c-5-6.2-7.1-14.3-5.9-22.1c0.3-1.4,1.2-2.6,2.5-3.1l1.4-0.5l2.1,6.7
	c-0.9,0.4-1.7,1.1-2.2,2c-0.6,1.1-0.7,2.3-0.4,3.4c0,0,0,0,0,0c0,0,0,0,0,0l2.1,6.6c0,0,0,0,0,0c0,0,0,0,0,0c0,0,0,0,0,0
	c0,0,0,0,0,0c0.6,1.7,2.3,2.7,4.1,2.7c0.3,0,0.6,0,1-0.1l2.1,6.7l-0.5,0.2C26.5,46.1,24,45,22.4,42.9z"/>
<path class="st7" d="M32.4,28c0.3,0.2,0.6,0.4,0.7,0.8c0.1,0.4,0.1,0.7-0.1,1.1c-0.2,0.4,0,0.8,0.3,1c0.1,0.1,0.2,0.1,0.3,0.1
	c0.3,0,0.5-0.1,0.7-0.4c0.3-0.7,0.4-1.5,0.2-2.2c-0.2-0.7-0.7-1.3-1.4-1.6c-0.4-0.2-0.8,0-1,0.3C31.9,27.4,32.1,27.8,32.4,28"/>
<path class="st7" d="M35.6,21.7c3.6,1.8,5.5,6,4.3,9.9c-0.1,0.4,0.1,0.8,0.5,0.9c0.1,0,0.1,0,0.2,0c0.3,0,0.6-0.2,0.7-0.5
	c1.3-4.6-0.8-9.4-5.1-11.6c-0.4-0.2-0.8,0-1,0.3C35,21.1,35.2,21.5,35.6,21.7"/>
<path class="st7" d="M34,24.8c1.2,0.6,2.1,1.6,2.5,2.8c0.4,1.2,0.3,2.6-0.3,3.8c-0.2,0.4,0,0.8,0.3,1c0.1,0.1,0.2,0.1,0.3,0.1
	c0.3,0,0.5-0.1,0.7-0.4c0.8-1.5,0.9-3.3,0.3-4.9c-0.5-1.6-1.7-2.9-3.2-3.7c-0.4-0.2-0.8,0-1,0.3C33.5,24.2,33.6,24.6,34,24.8"/>
<path class="st7" d="M41.1,39.8c-0.5,0-1,0.4-1,1c0,0.5,0.4,1,1,1c0.5,0,1-0.4,1-1C42.1,40.2,41.7,39.8,41.1,39.8"/>
<path class="st7" d="M45.5,39.8c-0.5,0-1,0.4-1,1c0,0.5,0.4,1,1,1c0.5,0,1-0.4,1-1C46.4,40.2,46,39.8,45.5,39.8"/>
<path class="st7" d="M47.9,35.4c0,0-0.1-0.1-0.1-0.1c-1.6-1.2-3.7-1.9-6-1.9c-0.4,0-0.8,0-1.2,0c-2.2,0.2-4.3,1-5.9,2.2
	c-0.9,0.7-1.6,1.6-2.1,2.6c-0.8,1.6-0.9,3.4-0.2,5c0.1,0.2,0.2,0.4,0.3,0.7c0.9,1.7,2.7,3.1,4.9,3.9c0.7,0.2,1.4,0.4,2.1,0.5
	c0,0,0,0,0,0c0.5,0.1,1,0.4,1.1,0.8c0,0,0,0,0,0c0.6,1.3,1.7,2.3,3.1,2.8c0,0,0,0,0,0c0,0,0,0,0,0c0,0,0,0,0,0c0,0,0,0,0,0
	c0,0,0,0,0,0c0,0,0,0,0,0c0,0,0,0,0,0c0,0,0,0,0,0c0,0,0,0,0.1,0c0,0,0,0,0,0h0c0,0,0,0,0,0c0,0,0,0,0,0c0,0,0,0,0.1,0c0,0,0,0,0,0
	c0,0,0,0,0,0c0,0,0,0,0,0c0,0,0,0,0,0c0,0,0,0,0,0c0,0,0,0,0,0c0,0,0,0,0,0c0,0,0,0,0.1,0c0,0,0,0,0,0c0,0,0,0,0.1,0c0,0,0,0,0,0
	c0,0,0,0,0,0c0,0,0,0,0,0c0,0,0,0,0,0c0,0,0,0,0,0c0,0,0,0,0,0c0,0,0,0,0,0c0,0,0,0,0.1-0.1c0,0,0,0,0,0c0,0,0,0,0-0.1c0,0,0,0,0,0
	c0,0,0,0,0-0.1c0,0,0,0,0,0c0,0,0,0,0,0c0,0,0,0,0,0c0,0,0,0,0,0c0,0,0,0,0,0c0,0,0,0,0,0c0,0,0,0,0,0c0,0,0,0,0-0.1c0,0,0,0,0,0
	c0,0,0,0,0-0.1c0,0,0,0,0,0c0,0,0,0,0,0c0,0,0,0,0,0c0,0,0,0,0,0c0,0,0,0,0-0.1c0,0,0,0,0,0c0,0,0,0,0-0.1c0,0,0,0,0,0
	c-0.4-1.2,0-2.5,1-3.3c0,0,0,0,0,0c0.1-0.1,0.3-0.2,0.4-0.3c0,0,0,0,0,0c0,0,0,0,0,0c2.5-1.4,4-3.5,4.2-5.7
	C50.8,39.3,49.8,36.9,47.9,35.4 M48.9,41.4c-0.2,2.3-2.4,3.8-3.3,4.3c-0.3,0.1-0.5,0.3-0.7,0.5c0,0,0,0,0,0c-1,0.9-1.6,2.1-1.8,3.3
	c-0.3-0.3-0.5-0.6-0.7-1l0,0c-0.4-1-1.4-1.8-2.5-1.9c0,0,0,0,0,0c0,0,0,0,0,0c-0.6-0.1-1.1-0.2-1.7-0.4c-1-0.4-3-1.3-4-3.1
	c-0.1-0.2-0.2-0.3-0.2-0.5c-0.5-1.2-0.4-2.4,0.1-3.5c0.4-0.8,1-1.4,1.6-2c1.3-1,3-1.7,4.9-1.8c0.3,0,0.7,0,1,0
	c1.9,0.1,3.7,0.6,5,1.6c0,0,0.1,0,0.1,0.1C48.2,37.9,49,39.7,48.9,41.4z"/>
<path class="st7" d="M36.8,39.8c-0.5,0-1,0.4-1,1c0,0.5,0.4,1,1,1c0.5,0,1-0.4,1-1C37.8,40.2,37.3,39.8,36.8,39.8"/>
<g class="st4">
	<path class="st9" d="M14.3,31.3v7.9l3.2,4l3.2-0.8c0.7,0.6,1.6,1.1,2.4,1.6"/>
	<line class="st9" x1="14.3" y1="26.6" x2="14.3" y2="29.7"/>
	<line class="st9" x1="28.5" y1="40.8" x2="28.5" y2="48"/>
	<line class="st9" x1="17.4" y1="36.1" x2="17.4" y2="43.2"/>
	<path class="st9" d="M32.5,19.4c0.8,0,1.6,0,2.4,0l1.7-2.4l5.8,1.6l-1.2,2.3c1.4,0.6,2.5,1.4,3.5,2.3l3.5-0.8l2.5,4.1l-3.2,0.8
		c0.3,1.1,0.3,2.1,0,3.2l3.2,0.8l-3.2,4.8l-2.9-1.4c-1,0.9-2.2,1.7-3.5,2.3l0.8,2.3l-5.6,1.6l-1.6-2.4c-0.8,0.1-1.6,0-2.4,0
		c-0.8,0-1.6,0.1-2.4,0l-1.6,2.4L23,39.2l0.8-2.3c-1.3-0.6-2.5-1.4-3.5-2.3l-2.9,1.4l-3.2-4.8l3.2-0.8c-0.3-1.1-0.3-2.1,0-3.2
		l-3.2-0.8l2.5-4.1l3.5,0.8c1-0.9,2.1-1.6,3.5-2.3l-1.2-2.3l5.8-1.6l1.7,2.4C30.9,19.4,31.7,19.4,32.5,19.4z"/>
	<path class="st9" d="M32.5,25c3.5,0,6.3,1.8,6.3,4s-2.8,4-6.3,4h0c-3.5,0-6.3-1.8-6.3-4S29,25,32.5,25L32.5,25z"/>
	<path class="st9" d="M50.7,31.3v7.9l-3.2,4l-3.2-0.8C43.7,43,42.8,43.5,42,44"/>
	<line class="st9" x1="50.7" y1="26.6" x2="50.7" y2="29.7"/>
	<line class="st9" x1="36.5" y1="40.8" x2="36.5" y2="48"/>
	<path class="st9" d="M42,39.2v7.1L36.5,48l-2.4-1.6c-0.6,0-1.1,0-1.6,0c-0.5,0-1,0-1.6,0L28.5,48L23,46.4v-7.1"/>
	<line class="st9" x1="47.6" y1="36.1" x2="47.6" y2="43.2"/>
</g>
<g class="st4">
	<path class="st10" d="M45.6,32l0-1.5l2.5-3.3l0-9.3c0-0.6-0.6-1.1-1.3-1.1c-0.7,0-1.3,0.5-1.3,1.1v-0.6c0-0.6-0.6-1.1-1.3-1.1
		c-0.7,0-1.3,0.5-1.3,1.1v-0.4c0-0.6-0.6-1.1-1.3-1.1c-0.7,0-1.3,0.5-1.3,1.1v0.4c0-0.6-0.6-1.1-1.3-1.1c-0.7,0-1.3,0.5-1.3,1.1l0,6
		c0-0.6-0.6-1.1-1.3-1.1l0,0c-0.7,0-1.3,0.5-1.3,1.1l0,4.3l3.2,2.9l0,1.5"/>
</g>
<g class="st4">
	<line class="st11" x1="42.8" y1="17.2" x2="42.8" y2="20.7"/>
</g>
<g class="st4">
	<line class="st11" x1="40.2" y1="17.2" x2="40.2" y2="20.7"/>
</g>
<g class="st4">
	<line class="st11" x1="37.5" y1="23.2" x2="37.5" y2="25.3"/>
</g>
<g class="st4">
	<line class="st11" x1="44.3" y1="33.9" x2="44.3" y2="35"/>
</g>
<g class="st4">
	<rect x="43.8" y="33.9" class="st12" width="1.1" height="1.1"/>
</g>
<g class="st4">
	<path class="st10" d="M31.8,46.1l1.5,0l3.3,2.5l9.3,0c0.6,0,1.1-0.6,1.1-1.3c0-0.7-0.5-1.3-1.1-1.3h0.6c0.6,0,1.1-0.6,1.1-1.3
		c0-0.7-0.5-1.3-1.1-1.3H47c0.6,0,1.1-0.6,1.1-1.3c0-0.7-0.5-1.3-1.1-1.3l-0.4,0c0.6,0,1.1-0.6,1.1-1.3c0-0.7-0.5-1.3-1.1-1.3l-6,0
		c0.6,0,1.1-0.6,1.1-1.3l0,0c0-0.7-0.5-1.3-1.1-1.3l-4.3,0l-2.9,3.2l-1.5,0"/>
</g>
<g class="st4">
	<line class="st11" x1="46" y1="46" x2="43.1" y2="46"/>
</g>
<g class="st4">
	<line class="st11" x1="46.6" y1="43.3" x2="43.1" y2="43.3"/>
</g>
<g class="st4">
	<line class="st11" x1="46.6" y1="40.7" x2="43.1" y2="40.7"/>
</g>
<g class="st4">
	<line class="st11" x1="40.6" y1="38.1" x2="38.4" y2="38.1"/>
</g>
<g class="st4">
	<line class="st11" x1="29.8" y1="44.8" x2="28.8" y2="44.8"/>
</g>
<g class="st4">
	<rect x="28.8" y="44.3" class="st12" width="1.1" height="1.1"/>
</g>
<g class="st4">
	<path class="st10" d="M17.7,32.3v1.5l-2.5,3.3l0,9.3c0,0.6,0.6,1.1,1.3,1.1c0.7,0,1.3-0.5,1.3-1.1v0.6c0,0.6,0.6,1.1,1.3,1.1
		c0.7,0,1.3-0.5,1.3-1.1v0.4c0,0.6,0.6,1.1,1.3,1.1c0.7,0,1.3-0.5,1.3-1.1v-0.4c0,0.6,0.6,1.1,1.3,1.1c0.7,0,1.3-0.5,1.3-1.1l0-6
		c0,0.6,0.6,1.1,1.3,1.1h0c0.7,0,1.3-0.5,1.3-1.1l0-4.3l-3.2-2.9v-1.5"/>
</g>
<g class="st4">
	<line class="st11" x1="17.8" y1="46.5" x2="17.8" y2="43.6"/>
</g>
<g class="st4">
	<line class="st11" x1="20.4" y1="47.1" x2="20.4" y2="43.6"/>
</g>
<g class="st4">
	<line class="st11" x1="23.1" y1="47.1" x2="23.1" y2="43.6"/>
</g>
<g class="st4">
	<line class="st11" x1="25.7" y1="41.1" x2="25.7" y2="39"/>
</g>
<g class="st4">
	<line class="st11" x1="19" y1="30.4" x2="19" y2="29.3"/>
</g>
<g class="st4">
	<rect x="18.4" y="29.3" class="st12" width="1.1" height="1.1"/>
</g>
<g class="st4">
	<path class="st10" d="M29.9,18.2l-3.3-2.5l-9.3,0c-0.6,0-1.1,0.6-1.1,1.3c0,0.7,0.5,1.3,1.1,1.3h-0.6c-0.6,0-1.1,0.6-1.1,1.3
		c0,0.7,0.5,1.3,1.1,1.3h-0.4c-0.6,0-1.1,0.6-1.1,1.3c0,0.7,0.5,1.3,1.1,1.3h0.4c-0.6,0-1.1,0.6-1.1,1.3c0,0.7,0.5,1.3,1.1,1.3h6
		c-0.6,0-1.1,0.6-1.1,1.3c0,0.7,0.5,1.3,1.1,1.3l4.3,0l2.9-3.2h1.5v-7.4L29.9,18.2z"/>
</g>
<g class="st4">
	<line class="st11" x1="17.3" y1="18.3" x2="20.2" y2="18.3"/>
</g>
<g class="st4">
	<line class="st11" x1="16.7" y1="21" x2="20.2" y2="21"/>
</g>
<g class="st4">
	<line class="st11" x1="16.7" y1="23.6" x2="20.2" y2="23.6"/>
</g>
<g class="st4">
	<line class="st11" x1="22.7" y1="26.2" x2="24.8" y2="26.2"/>
</g>
<g class="st4">
	<path class="st13" d="M48.6,27.3v-9.5c0-0.4-0.2-0.9-0.6-1.2c-0.6-0.5-1.6-0.6-2.3-0.2c-0.3-0.5-0.9-0.9-1.6-0.9
		c-0.4,0-0.8,0.1-1.1,0.3c-0.3-0.4-0.9-0.7-1.5-0.7c-0.6,0-1.2,0.3-1.5,0.7c-0.3-0.2-0.7-0.3-1.1-0.3c-0.9,0-1.6,0.6-1.8,1.3l-6.1,0
		v0.8l-0.8,0l-3.3-2.5l-9.5,0c-0.9,0-1.6,0.8-1.6,1.8c0,0.4,0.1,0.7,0.3,1c-0.5,0.3-0.9,0.9-0.9,1.6c0,0.4,0.1,0.8,0.3,1.1
		c-0.4,0.3-0.7,0.9-0.7,1.5c0,0.6,0.3,1.2,0.7,1.5c-0.2,0.3-0.3,0.7-0.3,1.1c0,0.9,0.6,1.6,1.3,1.8l0,6.1h0.8v0.8L14.7,37v9.5
		c0,0.9,0.8,1.6,1.8,1.6c0.4,0,0.7-0.1,1-0.3c0.3,0.5,0.9,0.9,1.6,0.9c0.4,0,0.8-0.1,1.1-0.3c0.3,0.4,0.9,0.7,1.5,0.7
		c0.6,0,1.2-0.3,1.5-0.7c0.3,0.2,0.7,0.3,1.1,0.3c0.9,0,1.6-0.6,1.8-1.3h6.1v-0.8h0.8l3.3,2.5l9.5,0c0.9,0,1.6-0.8,1.6-1.8
		c0-0.4-0.1-0.7-0.3-1c0.5-0.3,0.9-0.9,0.9-1.6c0-0.4-0.1-0.8-0.3-1.1c0.4-0.3,0.7-0.9,0.7-1.5c0-0.6-0.3-1.2-0.7-1.5
		c0.2-0.3,0.3-0.7,0.3-1.1c0-0.9-0.6-1.6-1.3-1.8l0-6.1h-0.8v-0.8L48.6,27.3z M32,18l5,0v3.8c-0.2-0.1-0.5-0.2-0.8-0.2
		c-1,0-1.8,0.7-1.8,1.6v2.5H32V18z M16.7,25.7c-0.3,0-0.6-0.4-0.6-0.8c0-0.4,0.3-0.8,0.6-0.8v0h3.5v-1.1h-3.5l-0.4,0
		c-0.3,0-0.6-0.4-0.6-0.8c0-0.4,0.3-0.8,0.6-0.8h3.9v-1.1l-3.5,0v0c-0.3,0-0.6-0.4-0.6-0.8c0-0.4,0.3-0.8,0.6-0.8h3.5v-1.1h-2.9
		c-0.3,0-0.6-0.4-0.6-0.8c0-0.4,0.3-0.8,0.6-0.8l9.1,0l3.3,2.5l1.2,0v6.4h-1.2l-2.9,3.2h-4.1c-0.3,0-0.6-0.4-0.6-0.8
		c0-0.4,0.3-0.8,0.6-0.8v0h2.1v-1.1l-2.1,0H16.7z M22.7,29.4h2.5l0,2.4h-7.7l0-5h3.8c-0.1,0.2-0.2,0.5-0.2,0.8
		C21.1,28.6,21.8,29.4,22.7,29.4z M25.2,39v8.1c0,0.3-0.4,0.6-0.8,0.6c-0.4,0-0.8-0.3-0.8-0.6v-3.5h-1.1v3.9c0,0.3-0.4,0.6-0.8,0.6
		c-0.4,0-0.8-0.3-0.8-0.6v-3.9h-1.1v3.5c0,0.3-0.4,0.6-0.8,0.6c-0.4,0-0.8-0.3-0.8-0.6v-3.5h-1.1v2.9c0,0.3-0.4,0.6-0.8,0.6
		c-0.4,0-0.8-0.3-0.8-0.6v-9.1l2.5-3.3v-1.2h6.4v1.2l3.2,2.9v4.1c0,0.3-0.4,0.6-0.8,0.6s-0.8-0.3-0.8-0.6V39H25.2z M31.3,46.3h-5
		v-3.8c0.2,0.1,0.5,0.2,0.8,0.2c1,0,1.8-0.7,1.8-1.6v-2.5h2.4V46.3z M28.9,37.6v-1l-3.2-2.9v-0.8h0.5l0-3.5h1l2.9-3.2h0.8v0.5h3.5v1
		l3.2,2.9v0.8H37l0,3.5h-1l-2.9,3.2h-0.8v-0.5H28.9z M46.6,38.6c0.3,0,0.6,0.4,0.6,0.8c0,0.2-0.1,0.4-0.2,0.6
		c-0.1,0.1-0.2,0.2-0.4,0.2l-3.5,0v1.1l3.9,0c0.3,0,0.6,0.4,0.6,0.8c0,0.4-0.3,0.8-0.6,0.8h-3.9v1.1h3.5c0.3,0,0.6,0.4,0.6,0.8
		c0,0.4-0.3,0.8-0.6,0.8h-3.5v1.1H46c0.3,0,0.6,0.4,0.6,0.8c0,0.4-0.3,0.8-0.6,0.8l-9.1,0l-3.3-2.5h-1.2v-6.4h1.2l2.9-3.2l4.1,0
		c0.3,0,0.6,0.4,0.6,0.8c0,0.4-0.3,0.8-0.6,0.8h-2.1v1.1H46.6z M40.6,34.9h-2.5l0-2.4h7.7l0,5H42c0.1-0.2,0.2-0.5,0.2-0.8
		C42.2,35.7,41.5,34.9,40.6,34.9z M45,30.3v1.2h-6.4v-1.2l-3.2-2.9v-4.1c0-0.3,0.4-0.6,0.8-0.6c0.4,0,0.8,0.3,0.8,0.6v2.1h1.1v-8.1
		c0-0.3,0.4-0.6,0.8-0.6c0.4,0,0.8,0.3,0.8,0.6v3.5h1.1v-3.9c0-0.3,0.4-0.6,0.8-0.6c0.4,0,0.8,0.3,0.8,0.6v3.9h1.1v-3.5
		c0-0.3,0.4-0.6,0.8-0.6c0.4,0,0.8,0.3,0.8,0.6v3.5H46v-2.9c0-0.3,0.4-0.6,0.8-0.6c0.2,0,0.4,0.1,0.6,0.2c0.1,0.1,0.2,0.2,0.2,0.4
		v9.1L45,30.3z"/>
</g>
<g class="st4">
	<line class="st11" x1="33.4" y1="19.5" x2="34.5" y2="19.5"/>
</g>
<g class="st4">
	<rect x="33.4" y="18.9" class="st12" width="1.1" height="1.1"/>
</g>
<path class="st14" d="M34.9,50c0,1.5-1.2,2.7-2.7,2.7s-2.7-1.2-2.7-2.7c0-1.5,1.2-2.7,2.7-2.7S34.9,48.6,34.9,50z M34.9,15.4
	c0,1.5-1.2,2.7-2.7,2.7s-2.7-1.2-2.7-2.7s1.2-2.7,2.7-2.7S34.9,13.9,34.9,15.4z M42.1,32.3c0,5.4-4.4,9.8-9.8,9.8s-9.8-4.4-9.8-9.8
	s4.4-9.8,9.8-9.8S42.1,26.9,42.1,32.3z"/>
<path class="st14" d="M32.2,26.3c-1.8,0-3.4,1.4-3.4,3.2v1.6c0,1.8,1.7,3.2,3.4,3.2c1.8,0,3.4-1.4,3.4-3.2v-1.6
	C35.6,27.8,33.9,26.3,32.2,26.3z M37.3,40.6v-3.1c0-1.3-2.8-3.2-5.2-3.2S27,36.2,27,37.5v3.1 M22.5,32.3H19 M20.7,42.9l4.4-4.4
	 M20.7,21.6l4.4,4.4 M16.3,44.7c0,1.5,1.2,2.7,2.7,2.7c1.5,0,2.7-1.2,2.7-2.7c0-1.5-1.2-2.7-2.7-2.7C17.5,42,16.3,43.2,16.3,44.7z
	 M13.6,32.3c0,1.5,1.2,2.7,2.7,2.7s2.7-1.2,2.7-2.7c0-1.5-1.2-2.7-2.7-2.7S13.6,30.8,13.6,32.3z M16.3,19.8c0,1.5,1.2,2.7,2.7,2.7
	c1.5,0,2.7-1.2,2.7-2.7c0-1.5-1.2-2.7-2.7-2.7C17.5,17.2,16.3,18.4,16.3,19.8z M42.1,32.3h3.6 M43.8,42.9l-4.4-4.4 M43.8,21.6
	L39.4,26 M32.3,42v5.3 M32.3,18.1v4.4 M48.3,44.7c0,1.5-1.2,2.7-2.7,2.7c-1.5,0-2.7-1.2-2.7-2.7c0-1.5,1.2-2.7,2.7-2.7
	C47.1,42,48.3,43.2,48.3,44.7z M50.9,32.3c0,1.5-1.2,2.7-2.7,2.7s-2.7-1.2-2.7-2.7c0-1.5,1.2-2.7,2.7-2.7S50.9,30.8,50.9,32.3z
	 M48.3,19.8c0,1.5-1.2,2.7-2.7,2.7c-1.5,0-2.7-1.2-2.7-2.7c0-1.5,1.2-2.7,2.7-2.7C47.1,17.2,48.3,18.4,48.3,19.8z"/>
</svg>
