<?xml version="1.0" encoding="utf-8"?>
<!-- Generator: Adobe Illustrator 23.0.2, SVG Export Plug-In . SVG Version: 6.00 Build 0)  -->
<svg version="1.1" id="Layer_1" xmlns="http://www.w3.org/2000/svg" xmlns:xlink="http://www.w3.org/1999/xlink" x="0px" y="0px"
	 viewBox="0 0 65 65" style="enable-background:new 0 0 65 65;" xml:space="preserve">
<style type="text/css">
	.st0{fill:#FFFFFF;}
	.st1{fill:#286BFF;enable-background:new    ;}
	.st2{fill:#175DFF;enable-background:new    ;}
	.st3{fill:none;stroke:#2165FF;stroke-miterlimit:10;enable-background:new    ;}
</style>
<image style="overflow:visible;enable-background:new    ;" width="75" height="75" xlink:href="B0A3163DA64F1C34.png"  transform="matrix(1 0 0 1 -6 -8)">
</image>
<circle class="st0" cx="33" cy="33.2" r="27.2"/>
<path class="st1" d="M20.2,46.5H24c1.5,0,2.7-1.1,2.7-2.5V20.7c0-1.4-1.2-2.5-2.7-2.5h-3.8v1H24c0.9,0,1.6,0.7,1.6,1.5V44
	c0,0.8-0.7,1.5-1.6,1.5h-3.8V46.5"/>
<path class="st2" d="M16.9,20.7c-1.2,0-2.2-0.9-2.2-2c0-1.1,1-2,2.2-2s2.2,0.9,2.2,2C19.1,19.8,18.1,20.7,16.9,20.7 M15.8,18.7
	c0,0.6,0.5,1,1.1,1s1.1-0.5,1.1-1s-0.5-1-1.1-1S15.8,18.1,15.8,18.7z"/>
<path class="st2" d="M16.9,38.9c-1.2,0-2.2-0.9-2.2-2c0-1.1,1-2,2.2-2s2.2,0.9,2.2,2C19.1,38,18.1,38.9,16.9,38.9 M15.8,36.9
	c0,0.6,0.5,1,1.1,1s1.1-0.5,1.1-1c0-0.6-0.5-1-1.1-1S15.8,36.4,15.8,36.9z"/>
<path class="st2" d="M16.9,48.1c-1.2,0-2.2-0.9-2.2-2c0-1.1,1-2,2.2-2s2.2,0.9,2.2,2C19.1,47.2,18.1,48.1,16.9,48.1 M15.8,46
	c0,0.6,0.5,1,1.1,1s1.1-0.5,1.1-1c0-0.6-0.5-1-1.1-1S15.8,45.5,15.8,46z"/>
<rect x="20.2" y="36.4" class="st1" width="8.7" height="1"/>
<path class="st2" d="M16.9,29.8c-1.2,0-2.2-0.9-2.2-2c0-1.1,1-2,2.2-2s2.2,0.9,2.2,2C19.1,28.9,18.1,29.8,16.9,29.8 M15.8,27.8
	c0,0.6,0.5,1,1.1,1s1.1-0.5,1.1-1c0-0.6-0.5-1-1.1-1S15.8,27.3,15.8,27.8z"/>
<rect x="20.2" y="27.3" class="st1" width="8.7" height="1"/>
<path class="st3" d="M35.4,25.1v3.2c0,3.6,3.2,6.5,6.6,6.5c3.4,0,6.6-2.9,6.6-6.5v-3.2c0-3.6-3.2-6.5-6.6-6.5
	C38.6,18.6,35.4,21.5,35.4,25.1z"/>
<path class="st3" d="M52.3,45.5v-4.4c0-2.6-5.6-6.4-10.2-6.4s-10.2,3.8-10.2,6.4v4.4"/>
</svg>
