<?xml version="1.0" encoding="utf-8"?>
<!-- Generator: Adobe Illustrator 23.0.2, SVG Export Plug-In . SVG Version: 6.00 Build 0)  -->
<svg version="1.1" id="Layer_1" xmlns="http://www.w3.org/2000/svg" xmlns:xlink="http://www.w3.org/1999/xlink" x="0px" y="0px"
	 viewBox="0 0 65 65" style="enable-background:new 0 0 65 65;" xml:space="preserve">
<style type="text/css">
	.st0{fill:#FFFFFF;}
	.st1{display:none;fill:#286BFF;enable-background:new    ;}
	.st2{display:none;fill:#175DFF;enable-background:new    ;}
	.st3{display:none;fill:none;stroke:#2165FF;stroke-miterlimit:10;enable-background:new    ;}
	.st4{display:none;fill:#FFFFFF;}
	.st5{fill:#1C73FF;}
</style>
<image style="overflow:visible;enable-background:new    ;" width="75" height="75" xlink:href="B0BC5763D47A1911.png"  transform="matrix(1 0 0 1 -6 -8)">
</image>
<circle class="st0" cx="33" cy="33.2" r="27.2"/>
<path class="st1" d="M20.2,46.5H24c1.5,0,2.7-1.1,2.7-2.5V20.7c0-1.4-1.2-2.5-2.7-2.5h-3.8v1H24c0.9,0,1.6,0.7,1.6,1.5V44
	c0,0.8-0.7,1.5-1.6,1.5h-3.8V46.5"/>
<path class="st2" d="M16.9,20.7c-1.2,0-2.2-0.9-2.2-2c0-1.1,1-2,2.2-2s2.2,0.9,2.2,2C19.1,19.8,18.1,20.7,16.9,20.7 M15.8,18.7
	c0,0.6,0.5,1,1.1,1s1.1-0.5,1.1-1s-0.5-1-1.1-1S15.8,18.1,15.8,18.7z"/>
<path class="st2" d="M16.9,38.9c-1.2,0-2.2-0.9-2.2-2c0-1.1,1-2,2.2-2s2.2,0.9,2.2,2C19.1,38,18.1,38.9,16.9,38.9 M15.8,36.9
	c0,0.6,0.5,1,1.1,1s1.1-0.5,1.1-1c0-0.6-0.5-1-1.1-1S15.8,36.4,15.8,36.9z"/>
<path class="st2" d="M16.9,48.1c-1.2,0-2.2-0.9-2.2-2c0-1.1,1-2,2.2-2s2.2,0.9,2.2,2C19.1,47.2,18.1,48.1,16.9,48.1 M15.8,46
	c0,0.6,0.5,1,1.1,1s1.1-0.5,1.1-1c0-0.6-0.5-1-1.1-1S15.8,45.5,15.8,46z"/>
<rect x="20.2" y="36.4" class="st1" width="8.7" height="1"/>
<path class="st2" d="M16.9,29.8c-1.2,0-2.2-0.9-2.2-2c0-1.1,1-2,2.2-2s2.2,0.9,2.2,2C19.1,28.9,18.1,29.8,16.9,29.8 M15.8,27.8
	c0,0.6,0.5,1,1.1,1s1.1-0.5,1.1-1c0-0.6-0.5-1-1.1-1S15.8,27.3,15.8,27.8z"/>
<rect x="20.2" y="27.3" class="st1" width="8.7" height="1"/>
<path class="st3" d="M35.4,25.1v3.2c0,3.6,3.2,6.5,6.6,6.5c3.4,0,6.6-2.9,6.6-6.5v-3.2c0-3.6-3.2-6.5-6.6-6.5
	C38.6,18.6,35.4,21.5,35.4,25.1z"/>
<path class="st3" d="M52.3,45.5v-4.4c0-2.6-5.6-6.4-10.2-6.4s-10.2,3.8-10.2,6.4v4.4"/>
<ellipse class="st4" cx="32.5" cy="32.9" rx="25.1" ry="23.3"/>
<path class="st2" d="M50.8,24.9c-0.4-0.4-0.9-0.6-1.4-0.6h-2.6v-5.1H41l-8.6-8.6L24,19.2h-6v5.1h-2.3c-1.1,0-2,0.9-2,2l0,20.7
	c0,0.5,0.2,1,0.6,1.4c0.4,0.4,0.9,0.6,1.4,0.6h11.1v1.8h-2.6v1.3h16.8v-1.3h-2.6v-1.8h11.1c1.1,0,2-0.9,2-2l0-20.7
	C51.4,25.7,51.2,25.2,50.8,24.9 M49.4,25.6c0.2,0,0.3,0.1,0.5,0.2c0.1,0.1,0.2,0.3,0.2,0.5l0,18.1h-3.2V25.6H49.4z M25.8,19.2
	l6.6-6.7l7.3,7.3l-7.3,7.3l-6.7-6.6l-0.6-0.6L25.8,19.2z M24.9,21.5l6.9,6.8v6.2l-6.9-6.8V21.5z M33.1,28.3l6.9-6.9v6.1l-6.9,6.9
	V28.3z M19.3,20.5h4.3v7.7l8.9,8.8l8.9-8.9v-7.5h4.2v23.8h-19c-0.3-3.9-3.4-6.9-7.3-7.3V20.5z M19.3,38.4c3.1,0.3,5.6,2.8,5.9,5.9
	h-5.9V38.4z M15,26.3c0-0.4,0.3-0.7,0.7-0.7h2.3v18.8h-3L15,26.3z M28,48.9h9v1.8h-9V48.9z M50,47c0,0.4-0.3,0.7-0.7,0.7H15.6
	c-0.2,0-0.3-0.1-0.5-0.2c-0.1-0.1-0.2-0.3-0.2-0.5l0-1.3h35.1L50,47z"/>
<path class="st2" d="M40.7,41.9c2.5,0,4.6-2.1,4.6-4.6c0-2.5-2.1-4.6-4.6-4.6s-4.6,2.1-4.6,4.6C36.1,39.8,38.1,41.9,40.7,41.9
	 M40.7,34c1.8,0,3.3,1.5,3.3,3.3s-1.5,3.3-3.3,3.3s-3.3-1.5-3.3-3.3S38.9,34,40.7,34"/>
<g>
	<g>
		<path class="st5" d="M18.8,50.2c-0.4,0-0.7-0.3-0.7-0.7V36.5c0-0.4,0.3-0.7,0.7-0.7c0.4,0,0.7,0.3,0.7,0.7v13.1
			C19.4,49.9,19.1,50.2,18.8,50.2z"/>
	</g>
</g>
<g>
	<g>
		<path class="st5" d="M18.8,25.4c-0.4,0-0.7-0.3-0.7-0.7v-7.8c0-0.4,0.3-0.7,0.7-0.7c0.4,0,0.7,0.3,0.7,0.7v7.8
			C19.4,25.1,19.1,25.4,18.8,25.4z"/>
	</g>
</g>
<g>
	<g>
		<path class="st5" d="M27.9,50.2c-0.4,0-0.7-0.3-0.7-0.7v-3.9c0-0.4,0.3-0.7,0.7-0.7c0.4,0,0.7,0.3,0.7,0.7v3.9
			C28.6,49.9,28.3,50.2,27.9,50.2z"/>
	</g>
</g>
<g>
	<g>
		<path class="st5" d="M27.9,34.5c-0.4,0-0.7-0.3-0.7-0.7v-17c0-0.4,0.3-0.7,0.7-0.7c0.4,0,0.7,0.3,0.7,0.7v17
			C28.6,34.2,28.3,34.5,27.9,34.5z"/>
	</g>
</g>
<g>
	<g>
		<path class="st5" d="M37.1,50.2c-0.4,0-0.7-0.3-0.7-0.7V37.8c0-0.4,0.3-0.7,0.7-0.7c0.4,0,0.7,0.3,0.7,0.7v11.8
			C37.7,49.9,37.4,50.2,37.1,50.2z"/>
	</g>
</g>
<g>
	<g>
		<path class="st5" d="M37.1,26.7c-0.4,0-0.7-0.3-0.7-0.7v-9.2c0-0.4,0.3-0.7,0.7-0.7c0.4,0,0.7,0.3,0.7,0.7V26
			C37.7,26.4,37.4,26.7,37.1,26.7z"/>
	</g>
</g>
<g>
	<g>
		<path class="st5" d="M46.2,50.2c-0.4,0-0.7-0.3-0.7-0.7V31.3c0-0.4,0.3-0.7,0.7-0.7c0.4,0,0.7,0.3,0.7,0.7v18.3
			C46.9,49.9,46.6,50.2,46.2,50.2z"/>
	</g>
</g>
<g>
	<g>
		<path class="st5" d="M46.2,20.1c-0.4,0-0.7-0.3-0.7-0.7v-2.6c0-0.4,0.3-0.7,0.7-0.7c0.4,0,0.7,0.3,0.7,0.7v2.6
			C46.9,19.9,46.6,20.1,46.2,20.1z"/>
	</g>
</g>
<g>
	<g>
		<path class="st5" d="M18.8,35.2c-2.5,0-4.6-2.1-4.6-4.6s2.1-4.6,4.6-4.6c2.5,0,4.6,2.1,4.6,4.6S21.3,35.2,18.8,35.2z M18.8,27.3
			c-1.8,0-3.3,1.5-3.3,3.3c0,1.8,1.5,3.3,3.3,3.3c1.8,0,3.3-1.5,3.3-3.3C22,28.8,20.6,27.3,18.8,27.3z"/>
	</g>
</g>
<g>
	<g>
		<path class="st5" d="M27.9,44.3c-2.5,0-4.6-2.1-4.6-4.6c0-2.5,2.1-4.6,4.6-4.6c2.5,0,4.6,2.1,4.6,4.6
			C32.5,42.3,30.4,44.3,27.9,44.3z M27.9,36.5c-1.8,0-3.3,1.5-3.3,3.3s1.5,3.3,3.3,3.3c1.8,0,3.3-1.5,3.3-3.3S29.7,36.5,27.9,36.5z"
			/>
	</g>
</g>
<g>
	<g>
		<path class="st5" d="M46.2,29.9c-2.5,0-4.6-2.1-4.6-4.6s2.1-4.6,4.6-4.6c2.5,0,4.6,2.1,4.6,4.6S48.8,29.9,46.2,29.9z M46.2,22.1
			c-1.8,0-3.3,1.5-3.3,3.3s1.5,3.3,3.3,3.3c1.8,0,3.3-1.5,3.3-3.3S48,22.1,46.2,22.1z"/>
	</g>
</g>
<g>
	<g>
		<path class="st5" d="M37.1,36.5c-2.5,0-4.6-2.1-4.6-4.6s2.1-4.6,4.6-4.6c2.5,0,4.6,2.1,4.6,4.6S39.6,36.5,37.1,36.5z M37.1,28.6
			c-1.8,0-3.3,1.5-3.3,3.3s1.5,3.3,3.3,3.3c1.8,0,3.3-1.5,3.3-3.3S38.9,28.6,37.1,28.6z"/>
	</g>
</g>
</svg>
