<svg id="Layer_1" data-name="Layer 1" xmlns="http://www.w3.org/2000/svg" viewBox="0 0 384.67 96.15"><defs><style>.cls-1{fill:#fff;}</style></defs><title>Visionayr-Intent-Recognition-Engine</title><path class="cls-1" d="M30.91,13.28,19.64,42.94H12.51L1,13.28H9.31L16,32.5l6.59-19.22Z" transform="translate(-1 -2)"/><path class="cls-1" d="M33.33,2h8.18V9.36H33.33Zm.3,11.28h7.6V42.94h-7.6Z" transform="translate(-1 -2)"/><path class="cls-1" d="M63.22,21.63c-1.31-1.58-2.61-2.37-5.81-2.37-2,0-3.74.6-3.74,2.31s1.58,2.43,4.74,2.91c7.3,1.12,11,3.92,11,9.79s-4,9.19-11.62,9.19c-6,0-9.73-1.48-12.27-4.93l5.81-4.15C52.48,36,54,36.93,57.62,36.93c2.61,0,4.22-.88,4.22-2.43,0-1.83-1.31-2.43-5-3-6.18-1-10.68-3.62-10.68-9.6,0-5.64,4-9.13,11.45-9.13,4.86,0,8.89,1.12,11.21,4.93Z" transform="translate(-1 -2)"/><path class="cls-1" d="M73.87,2H82V9.36H73.87Zm.3,11.28h7.6V42.94h-7.6Z" transform="translate(-1 -2)"/><path class="cls-1" d="M112.1,29.83c0,8.13-3.85,13.65-12.81,13.65-8.61,0-12.81-5.34-12.81-13.65V26.27c0-8.89,4.74-13.52,12.81-13.52s12.81,4.63,12.81,13.52Zm-7.53-.24V26.43c0-4.74-1.58-7.36-5.27-7.36S94,21.68,94,26.43v3.16c0,4.26,1.07,7.47,5.27,7.47S104.57,33.85,104.57,29.59Z" transform="translate(-1 -2)"/><path class="cls-1" d="M116,13.28h7.41v2.5a8.54,8.54,0,0,1,6.82-3c6,0,10.85,2.84,10.85,11.62V42.94H133.5V25.56c0-4.63-1.66-6.32-4.74-6.32-3.51,0-5.23,2.31-5.23,6.22V42.84h-7.6Z" transform="translate(-1 -2)"/><path class="cls-1" d="M155.45,25.14h5.87V23.42c0-3.32-1-4.39-5.27-4.39-2.91,0-4.33.41-5.57,2.37l-5.34-3.74c2.2-3.62,5.51-4.93,11.62-4.93,7.66,0,12,2.26,12,10.74V42.92h-7.42V40.31c-1.18,2-3,3.16-6.41,3.16-6.18,0-10.44-3.27-10.44-9.32C144.48,27.87,149.23,25.14,155.45,25.14Zm5.87,5.57h-5c-3.16,0-4.45,1-4.45,3.32s1.72,3.32,4.33,3.32c3.44,0,5.1-1.48,5.1-5.51Z" transform="translate(-1 -2)"/><path class="cls-1" d="M178,13.28l6.59,19,5.94-19h7.66l-10.38,31c-2.67,7.9-5.27,9.9-13.58,9.9V47.44c4.09,0,5.7-.65,6.93-4.09l-11.06-30Z" transform="translate(-1 -2)"/><path class="cls-1" d="M216,21.52a4.37,4.37,0,0,0-3.74-2.26c-2.84,0-4.74,2.07-4.74,6.22V42.86h-7.6V13.28h7.41v2.5a7.34,7.34,0,0,1,6.46-3,8.67,8.67,0,0,1,8,4.63Z" transform="translate(-1 -2)"/><path class="cls-1" d="M4.13,63.09H6.78v2.65H4.13Zm.24,7.52H6.54V90.44H4.38Z" transform="translate(-1 -2)"/><path class="cls-1" d="M11.88,70.6h2.18v2.68c1-1.9,2.84-2.92,5.81-2.92,4.39,0,7.28,2.73,7.28,8.31V90.44H24.91V78.77c0-4.5-2.26-6.32-5.34-6.32-3.71,0-5.57,2.45-5.57,6.1V90.44H11.82Z" transform="translate(-1 -2)"/><path class="cls-1" d="M30.15,70.6h2.53V66.26h2.18V70.6h4.86v2H34.86V83.68c0,3.16.36,4.58,3.55,4.58h1.31v2.18H38.33c-4.39,0-5.65-2-5.65-6.1V72.67H30.15Z" transform="translate(-1 -2)"/><path class="cls-1" d="M44.27,81v.84c0,3.92,1.82,6.73,6,6.73a5.51,5.51,0,0,0,5.15-2.42l1.74,1.23a7.28,7.28,0,0,1-6.76,3.16c-5.26,0-8.31-3.24-8.31-8.73V79c0-5.62,2.68-8.65,7.63-8.65s7.63,3,7.63,8.65v2Zm0-2H55.19c0-4.31-1.86-6.65-5.46-6.65s-5.46,2.37-5.46,6.65Z" transform="translate(-1 -2)"/><path class="cls-1" d="M61.42,70.6H63.6v2.68c1-1.9,2.84-2.92,5.81-2.92,4.39,0,7.28,2.73,7.28,8.31V90.44H74.52V78.77c0-4.5-2.26-6.32-5.34-6.32-3.71,0-5.57,2.45-5.57,6.1V90.44H61.42Z" transform="translate(-1 -2)"/><path class="cls-1" d="M79.7,70.6h2.53V66.26H84.4V70.6h4.86v2H84.4V83.68c0,3.16.36,4.58,3.55,4.58h1.31v2.18H87.88c-4.39,0-5.65-2-5.65-6.1V72.67H79.7Z" transform="translate(-1 -2)"/><path class="cls-1" d="M104.1,78.48v12h-2.18V70.6h2.18v2.68a5.05,5.05,0,0,1,5-2.92,6.44,6.44,0,0,1,5.57,2.73l-1.82,1.34a4.6,4.6,0,0,0-3.95-2C105.79,72.42,104.1,74.88,104.1,78.48Z" transform="translate(-1 -2)"/><path class="cls-1" d="M117.46,81v.84c0,3.92,1.82,6.73,6,6.73a5.51,5.51,0,0,0,5.15-2.42l1.74,1.23a7.28,7.28,0,0,1-6.76,3.16c-5.26,0-8.31-3.24-8.31-8.73V79c0-5.62,2.68-8.65,7.63-8.65s7.63,3,7.63,8.65v2Zm0-2h10.91c0-4.31-1.86-6.65-5.46-6.65s-5.46,2.37-5.46,6.65Z" transform="translate(-1 -2)"/><path class="cls-1" d="M148.69,87.41A7.42,7.42,0,0,1,142,90.57c-5.31,0-8.34-3.16-8.34-8.73V79c0-5.62,3.16-8.65,8.34-8.65a7.9,7.9,0,0,1,6.68,3l-1.74,1.18A6,6,0,0,0,142,72.36c-3.92,0-6.18,2.37-6.18,6.65v2.84c0,3.92,1.82,6.73,6.18,6.73a5.57,5.57,0,0,0,5-2.42Z" transform="translate(-1 -2)"/><path class="cls-1" d="M158.38,90.61c-5.1,0-8-3.16-8-8.7V79c0-5.62,3-8.65,8-8.65s8,3,8,8.65v2.89C166.41,87.28,163.68,90.61,158.38,90.61ZM164.24,79c0-4.31-2.1-6.65-5.86-6.65s-5.86,2.34-5.86,6.65v2.89c0,4.15,1.86,6.68,5.86,6.68s5.86-2.53,5.86-6.68Z" transform="translate(-1 -2)"/><path class="cls-1" d="M169.18,79c0-5.62,2.81-8.65,7.71-8.65,3,0,4.86.95,6,2.81V70.62H185v19c0,5.5-3,8.54-8.07,8.54A6.92,6.92,0,0,1,170.39,95l1.71-1.23a5.32,5.32,0,0,0,5,2.42c4,0,5.78-2.61,5.78-6.52V88c-1.11,1.82-3,2.65-6,2.65-5.15,0-7.71-3.32-7.71-8.73Zm13.66,2.87V78.75c0-3.87-1.71-6.41-5.81-6.41-3.76,0-5.7,2.34-5.7,6.65v2.84c0,4.15,1.86,6.73,5.7,6.73C181.48,88.61,182.84,85.8,182.84,81.91Z" transform="translate(-1 -2)"/><path class="cls-1" d="M189.77,70.6H192v2.68c1-1.9,2.84-2.92,5.81-2.92,4.39,0,7.28,2.73,7.28,8.31V90.44h-2.18V78.77c0-4.5-2.26-6.32-5.34-6.32-3.71,0-5.57,2.45-5.57,6.1V90.44h-2.18Z" transform="translate(-1 -2)"/><path class="cls-1" d="M210.14,63.09h2.7v2.65h-2.65Zm.24,7.52h2.18V90.44h-2.18Z" transform="translate(-1 -2)"/><path class="cls-1" d="M216.15,70.6h2.53V66.26h2.18V70.6h4.86v2h-4.86V83.68c0,3.16.36,4.58,3.55,4.58h1.31v2.18h-1.39c-4.39,0-5.65-2-5.65-6.1V72.67h-2.53Z" transform="translate(-1 -2)"/><path class="cls-1" d="M229.63,63.09h2.65v2.65h-2.65Zm.24,7.52H232V90.44h-2.18Z" transform="translate(-1 -2)"/><path class="cls-1" d="M244.43,90.61c-5.1,0-8-3.16-8-8.7V79c0-5.62,3-8.65,8-8.65s8,3,8,8.65v2.89C252.45,87.28,249.72,90.61,244.43,90.61ZM250.29,79c0-4.31-2.1-6.65-5.86-6.65s-5.86,2.34-5.86,6.65v2.89c0,4.15,1.86,6.68,5.86,6.68s5.86-2.53,5.86-6.68Z" transform="translate(-1 -2)"/><path class="cls-1" d="M256.21,70.6h2.18v2.68c1-1.9,2.84-2.92,5.81-2.92,4.39,0,7.28,2.73,7.28,8.31V90.44H269.3V78.77c0-4.5-2.26-6.32-5.34-6.32-3.71,0-5.57,2.45-5.57,6.1V90.44h-2.18Z" transform="translate(-1 -2)"/><path class="cls-1" d="M286.5,81v.84c0,3.92,1.82,6.73,6,6.73a5.51,5.51,0,0,0,5.15-2.42l1.74,1.23a7.28,7.28,0,0,1-6.76,3.16c-5.26,0-8.31-3.24-8.31-8.73V79c0-5.62,2.68-8.65,7.63-8.65s7.63,3,7.63,8.65v2Zm0-2h10.91c0-4.31-1.86-6.65-5.46-6.65s-5.46,2.37-5.46,6.65Z" transform="translate(-1 -2)"/><path class="cls-1" d="M303.65,70.6h2.18v2.68c1-1.9,2.84-2.92,5.81-2.92,4.39,0,7.28,2.73,7.28,8.31V90.44h-2.18V78.77c0-4.5-2.26-6.32-5.34-6.32-3.71,0-5.57,2.45-5.57,6.1V90.44h-2.18Z" transform="translate(-1 -2)"/><path class="cls-1" d="M322.67,79c0-5.62,2.81-8.65,7.71-8.65,3,0,4.86.95,6,2.81V70.62h2.18v19c0,5.5-3,8.54-8.07,8.54A6.92,6.92,0,0,1,323.89,95l1.71-1.23a5.32,5.32,0,0,0,5,2.42c4,0,5.78-2.61,5.78-6.52V88c-1.11,1.82-3,2.65-6,2.65-5.15,0-7.71-3.32-7.71-8.73Zm13.68,2.89V78.77c0-3.87-1.71-6.41-5.81-6.41-3.76,0-5.7,2.34-5.7,6.65v2.84c0,4.15,1.86,6.73,5.7,6.73,4.44,0,5.83-2.78,5.83-6.66Z" transform="translate(-1 -2)"/><path class="cls-1" d="M343.63,63.09h2.65v2.65h-2.65Zm.24,7.52H346V90.44h-2.12Z" transform="translate(-1 -2)"/><path class="cls-1" d="M351.38,70.6h2.18v2.68c1-1.9,2.84-2.92,5.81-2.92,4.39,0,7.28,2.73,7.28,8.31V90.44h-2.2V78.77c0-4.5-2.26-6.32-5.34-6.32-3.71,0-5.57,2.45-5.57,6.1V90.44h-2.18Z" transform="translate(-1 -2)"/><path class="cls-1" d="M372.57,81v.84c0,3.92,1.82,6.73,6,6.73a5.51,5.51,0,0,0,5.15-2.42l1.74,1.23a7.28,7.28,0,0,1-6.76,3.16c-5.26,0-8.31-3.24-8.31-8.73V79c0-5.62,2.68-8.65,7.63-8.65s7.63,3,7.63,8.65v2Zm0-2h10.91c0-4.31-1.86-6.65-5.46-6.65s-5.46,2.37-5.46,6.65Z" transform="translate(-1 -2)"/></svg>